<?xml version='1.0' encoding='utf-8'?>
<svg xmlns="http://www.w3.org/2000/svg" width="64" height="64" viewBox="0 0 64 64" fill="none"><g transform="translate(-1.600, -1.600) scale(0.350)" fill="#000000" opacity="0.2"><path d="M8 74.6c0-8.943 0-13.415 1.404-16.962a20 20 0 0 1 11.234-11.233C24.185 45 28.656 45 37.6 45h60.8c8.943 0 13.415 0 16.962 1.404a20 20 0 0 1 11.234 11.234C128 61.185 128 65.656 128 74.6v42.8c0 8.943 0 13.415-1.404 16.962a20 20 0 0 1-11.234 11.234C111.815 147 107.343 147 98.4 147H37.6c-8.943 0-13.415 0-16.963-1.404a20 20 0 0 1-11.233-11.234C8 130.815 8 126.343 8 117.4z" /><rect width="160" height="128" x="24" y="32" rx="20" /><path stroke-linecap="round" stroke-width="12" d="M80 121h84m-20 19V76" /></g><g transform="translate(-1.600, -1.600) scale(0.350)"><path fill="#009954" d="M8 74.6c0-8.943 0-13.415 1.404-16.962a20 20 0 0 1 11.234-11.233C24.185 45 28.656 45 37.6 45h60.8c8.943 0 13.415 0 16.962 1.404a20 20 0 0 1 11.234 11.234C128 61.185 128 65.656 128 74.6v42.8c0 8.943 0 13.415-1.404 16.962a20 20 0 0 1-11.234 11.234C111.815 147 107.343 147 98.4 147H37.6c-8.943 0-13.415 0-16.963-1.404a20 20 0 0 1-11.233-11.234C8 130.815 8 126.343 8 117.4z" /><rect width="160" height="128" x="24" y="32" fill="#0ebc5f" rx="20" /><path stroke="#fff" stroke-linecap="round" stroke-width="12" d="M80 121h84m-20 19V76" /></g></svg>